<svg width="28" height="27" viewBox="0 0 28 27" fill="none" xmlns="http://www.w3.org/2000/svg">
<path d="M9.36592 4.75C8.66199 4.74975 7.97751 4.97137 7.41797 5.38071C6.85844 5.79005 6.45491 6.36438 6.26959 7.01518L5.15892 10.9217C4.37996 11.0113 3.66228 11.3714 3.14161 11.9339C2.62094 12.4963 2.33336 13.2221 2.33325 13.974V16.4896C2.33325 17.4567 2.79992 18.3187 3.52675 18.8822C3.62981 19.7049 4.02318 20.4691 4.64164 21.0482C5.26009 21.6273 6.06648 21.9864 6.92711 22.066C7.78774 22.1456 8.65091 21.9409 9.37351 21.4859C10.0961 21.0309 10.6347 20.3529 10.9001 19.5642H16.5164C16.7722 20.3189 17.2786 20.9726 17.9584 21.4257C18.6381 21.8788 19.4538 22.1064 20.2811 22.0737C21.1084 22.041 21.9018 21.7499 22.5403 21.2447C23.1788 20.7395 23.6273 20.0481 23.8174 19.2758C24.3703 19.028 24.8379 18.6343 25.1654 18.1408C25.4929 17.6473 25.6668 17.0745 25.6666 16.4896V14.6023C25.6666 13.9166 25.4275 13.2506 24.9871 12.7101C24.5468 12.1696 23.9306 11.7856 23.2364 11.6193L20.6896 11.0089L17.7636 6.26161C17.48 5.80121 17.076 5.41964 16.5915 5.15455C16.107 4.88947 15.5588 4.75003 15.0009 4.75H9.36592ZM7.95892 7.45681C8.04312 7.16104 8.22647 6.90001 8.48072 6.71393C8.73497 6.52786 9.04601 6.42707 9.36592 6.42708H11.0833V10.8993H6.97892L7.95892 7.45681ZM12.8333 10.8993V6.42708H15.0009C15.5178 6.42708 15.9949 6.68871 16.2574 7.11357L18.5908 10.8993H12.8333ZM7.29159 16.4896C7.83307 16.4896 8.35238 16.6957 8.73526 17.0627C9.11815 17.4296 9.33325 17.9273 9.33325 18.4462C9.33325 18.9651 9.11815 19.4628 8.73526 19.8297C8.35238 20.1966 7.83307 20.4028 7.29159 20.4028C6.7501 20.4028 6.2308 20.1966 5.84791 19.8297C5.46502 19.4628 5.24992 18.9651 5.24992 18.4462C5.24992 17.9273 5.46502 17.4296 5.84791 17.0627C6.2308 16.6957 6.7501 16.4896 7.29159 16.4896ZM18.0833 18.4462C18.0833 17.9273 18.2984 17.4296 18.6812 17.0627C19.0641 16.6957 19.5834 16.4896 20.1249 16.4896C20.6664 16.4896 21.1857 16.6957 21.5686 17.0627C21.9515 17.4296 22.1666 17.9273 22.1666 18.4462C22.1666 18.9651 21.9515 19.4628 21.5686 19.8297C21.1857 20.1966 20.6664 20.4028 20.1249 20.4028C19.5834 20.4028 19.0641 20.1966 18.6812 19.8297C18.2984 19.4628 18.0833 18.9651 18.0833 18.4462Z" fill="white"/>
</svg>
