<svg width="31" height="31" viewBox="0 0 31 31" fill="none" xmlns="http://www.w3.org/2000/svg">
<rect width="31" height="31" fill="#1E1E1E"/>
<g id="Landing Page">
<rect width="1728" height="3690" transform="translate(-376 -967)" fill="#FFF8F4"/>
<g id="Frame 12" filter="url(#filter0_d_14_2)">
<rect x="-66" y="-64" width="1108" height="159" rx="30" fill="white" shape-rendering="crispEdges"/>
<g id="Frame 8">
<rect x="-10" y="-14.5" width="263" height="60" rx="4.5" fill="white"/>
<rect x="-10" y="-14.5" width="263" height="60" rx="4.5" stroke="#E1E1E1"/>
<g id="fluent:vehicle-car-profile-16-filled">
<path id="Vector" d="M22.58 12.6875L22.3269 12.5975L20.1987 8.6075C19.799 7.85767 19.203 7.23059 18.4745 6.79332C17.7459 6.35605 16.9122 6.12505 16.0625 6.125H10.7037C9.7197 6.12496 8.76059 6.43461 7.96235 7.01008C7.16411 7.58554 6.56721 8.39762 6.25625 9.33125L5.24188 12.3744C4.39204 12.7326 3.66675 13.3335 3.1568 14.1019C2.64685 14.8704 2.3749 15.7721 2.375 16.6944V18.7812C2.375 20.1125 3.16812 21.2563 4.30625 21.7719C4.45364 22.6163 4.88589 23.3848 5.53102 23.9493C6.17615 24.5138 6.9952 24.8402 7.85175 24.8742C8.7083 24.9082 9.55064 24.6476 10.2385 24.136C10.9263 23.6244 11.4181 22.8926 11.6319 22.0625H19.3681C19.5819 22.8926 20.0737 23.6244 20.7615 24.136C21.4494 24.6476 22.2917 24.9082 23.1482 24.8742C24.0048 24.8402 24.8239 24.5138 25.469 23.9493C26.1141 23.3848 26.5464 22.6163 26.6938 21.7719C27.2693 21.5121 27.7576 21.0917 28.1002 20.5612C28.4428 20.0308 28.625 19.4127 28.625 18.7812V18.1456C28.6249 17.178 28.3253 16.2341 27.7673 15.4435C27.2094 14.6529 26.4204 14.0544 25.5088 13.73L22.6775 12.7231V12.6875H22.58ZM8.03188 9.92375C8.21863 9.36303 8.57728 8.87539 9.0569 8.53006C9.53653 8.18473 10.1127 7.99927 10.7037 8H12.6875V12.6875H7.11312L8.03188 9.92375ZM20.2494 12.6875H14.5625V8H16.0625C16.5724 7.99982 17.0727 8.13825 17.51 8.40048C17.9473 8.66271 18.305 9.03888 18.545 9.48875L20.2494 12.6875ZM6.125 21.125C6.125 20.6277 6.32254 20.1508 6.67417 19.7992C7.02581 19.4475 7.50272 19.25 8 19.25C8.49728 19.25 8.97419 19.4475 9.32582 19.7992C9.67746 20.1508 9.875 20.6277 9.875 21.125C9.875 21.6223 9.67746 22.0992 9.32582 22.4508C8.97419 22.8025 8.49728 23 8 23C7.50272 23 7.02581 22.8025 6.67417 22.4508C6.32254 22.0992 6.125 21.6223 6.125 21.125ZM23 19.25C23.4973 19.25 23.9742 19.4475 24.3258 19.7992C24.6775 20.1508 24.875 20.6277 24.875 21.125C24.875 21.6223 24.6775 22.0992 24.3258 22.4508C23.9742 22.8025 23.4973 23 23 23C22.5027 23 22.0258 22.8025 21.6742 22.4508C21.3225 22.0992 21.125 21.6223 21.125 21.125C21.125 20.6277 21.3225 20.1508 21.6742 19.7992C22.0258 19.4475 22.5027 19.25 23 19.25Z" fill="#676767"/>
</g>
</g>
</g>
</g>
<defs>
<filter id="filter0_d_14_2" x="-88" y="-86" width="1156" height="207" filterUnits="userSpaceOnUse" color-interpolation-filters="sRGB">
<feFlood flood-opacity="0" result="BackgroundImageFix"/>
<feColorMatrix in="SourceAlpha" type="matrix" values="0 0 0 0 0 0 0 0 0 0 0 0 0 0 0 0 0 0 127 0" result="hardAlpha"/>
<feOffset dx="2" dy="2"/>
<feGaussianBlur stdDeviation="12"/>
<feComposite in2="hardAlpha" operator="out"/>
<feColorMatrix type="matrix" values="0 0 0 0 0.9625 0 0 0 0 0.9625 0 0 0 0 0.9625 0 0 0 0.25 0"/>
<feBlend mode="normal" in2="BackgroundImageFix" result="effect1_dropShadow_14_2"/>
<feBlend mode="normal" in="SourceGraphic" in2="effect1_dropShadow_14_2" result="shape"/>
</filter>
</defs>
</svg>
