<svg width="31" height="31" viewBox="0 0 31 31" fill="none" xmlns="http://www.w3.org/2000/svg">
<g id="material-symbols:search">
<path id="Vector" d="M25 26.75L17.125 18.875C16.5 19.375 15.7813 19.7708 14.9688 20.0625C14.1563 20.3542 13.2917 20.5 12.375 20.5C10.1042 20.5 8.1825 19.7133 6.61 18.14C5.0375 16.5667 4.25083 14.645 4.25 12.375C4.24917 10.105 5.03583 8.18333 6.61 6.61C8.18417 5.03667 10.1058 4.25 12.375 4.25C14.6442 4.25 16.5663 5.03667 18.1413 6.61C19.7163 8.18333 20.5025 10.105 20.5 12.375C20.5 13.2917 20.3542 14.1562 20.0625 14.9688C19.7708 15.7812 19.375 16.5 18.875 17.125L26.75 25L25 26.75ZM12.375 18C13.9375 18 15.2658 17.4533 16.36 16.36C17.4542 15.2667 18.0008 13.9383 18 12.375C17.9992 10.8117 17.4525 9.48375 16.36 8.39125C15.2675 7.29875 13.9392 6.75167 12.375 6.75C10.8108 6.74833 9.48292 7.29542 8.39125 8.39125C7.29958 9.48708 6.7525 10.815 6.75 12.375C6.7475 13.935 7.29458 15.2633 8.39125 16.36C9.48792 17.4567 10.8158 18.0033 12.375 18Z" fill="white"/>
</g>
</svg>
